<mxfile host="app.diagrams.net" agent="Mozilla/5.0 (Windows NT 10.0; Win64; x64) AppleWebKit/537.36 (KHTML, like Gecko) Chrome/133.0.0.0 Safari/537.36" version="26.0.16">
  <diagram name="Trang-1" id="g57KClx_9-fZl5mFlhjO">
    <mxGraphModel dx="2261" dy="1907" grid="1" gridSize="10" guides="1" tooltips="1" connect="1" arrows="1" fold="1" page="1" pageScale="1" pageWidth="827" pageHeight="1169" math="0" shadow="0">
      <root>
        <mxCell id="0" />
        <mxCell id="1" parent="0" />
        <mxCell id="BYJi9OCZLbPdZtuotPyX-113" value="" style="rounded=0;whiteSpace=wrap;html=1;fillColor=none;" parent="1" vertex="1">
          <mxGeometry x="-250" y="-470" width="1670" height="730" as="geometry" />
        </mxCell>
        <mxCell id="BYJi9OCZLbPdZtuotPyX-49" value="AWS Cloud" style="sketch=0;outlineConnect=0;html=1;whiteSpace=wrap;fontSize=12;fontStyle=0;shape=mxgraph.aws4.group;grIcon=mxgraph.aws4.group_aws_cloud;strokeColor=#FF8000;fillColor=none;verticalAlign=top;align=left;spacingLeft=30;fontColor=#000000;dashed=0;" parent="1" vertex="1">
          <mxGeometry x="-130" y="-450" width="1530" height="690" as="geometry" />
        </mxCell>
        <mxCell id="BYJi9OCZLbPdZtuotPyX-14" value="VPC" style="sketch=0;outlineConnect=0;html=1;whiteSpace=wrap;fontSize=12;fontStyle=0;shape=mxgraph.aws4.group;grIcon=mxgraph.aws4.group_vpc;strokeColor=#FF8000;fillColor=none;verticalAlign=top;align=left;spacingLeft=30;dashed=0;" parent="1" vertex="1">
          <mxGeometry x="280" y="-330" width="850" height="530" as="geometry" />
        </mxCell>
        <mxCell id="BYJi9OCZLbPdZtuotPyX-47" value="Region" style="points=[[0,0],[0.25,0],[0.5,0],[0.75,0],[1,0],[1,0.25],[1,0.5],[1,0.75],[1,1],[0.75,1],[0.5,1],[0.25,1],[0,1],[0,0.75],[0,0.5],[0,0.25]];outlineConnect=0;gradientColor=none;html=1;whiteSpace=wrap;fontSize=12;fontStyle=0;container=1;pointerEvents=0;collapsible=0;recursiveResize=0;shape=mxgraph.aws4.group;grIcon=mxgraph.aws4.group_region;strokeColor=#00A4A6;fillColor=none;verticalAlign=top;align=left;spacingLeft=30;fontColor=#147EBA;dashed=1;" parent="1" vertex="1">
          <mxGeometry x="50" y="-360" width="1110" height="580" as="geometry" />
        </mxCell>
        <mxCell id="BYJi9OCZLbPdZtuotPyX-54" value="Route 53" style="sketch=0;points=[[0,0,0],[0.25,0,0],[0.5,0,0],[0.75,0,0],[1,0,0],[0,1,0],[0.25,1,0],[0.5,1,0],[0.75,1,0],[1,1,0],[0,0.25,0],[0,0.5,0],[0,0.75,0],[1,0.25,0],[1,0.5,0],[1,0.75,0]];outlineConnect=0;fontColor=#232F3E;fillColor=#8C4FFF;strokeColor=#ffffff;dashed=0;verticalLabelPosition=bottom;verticalAlign=top;align=center;html=1;fontSize=12;fontStyle=0;aspect=fixed;shape=mxgraph.aws4.resourceIcon;resIcon=mxgraph.aws4.route_53;" parent="BYJi9OCZLbPdZtuotPyX-47" vertex="1">
          <mxGeometry x="-148" y="160" width="61" height="61" as="geometry" />
        </mxCell>
        <mxCell id="BYJi9OCZLbPdZtuotPyX-55" value="Front-end &amp;amp; Storage" style="sketch=0;points=[[0,0,0],[0.25,0,0],[0.5,0,0],[0.75,0,0],[1,0,0],[0,1,0],[0.25,1,0],[0.5,1,0],[0.75,1,0],[1,1,0],[0,0.25,0],[0,0.5,0],[0,0.75,0],[1,0.25,0],[1,0.5,0],[1,0.75,0]];outlineConnect=0;fontColor=#232F3E;fillColor=#7AA116;strokeColor=#ffffff;dashed=0;verticalLabelPosition=bottom;verticalAlign=top;align=center;html=1;fontSize=12;fontStyle=0;aspect=fixed;shape=mxgraph.aws4.resourceIcon;resIcon=mxgraph.aws4.s3;" parent="BYJi9OCZLbPdZtuotPyX-47" vertex="1">
          <mxGeometry x="37" y="340.5" width="70" height="70" as="geometry" />
        </mxCell>
        <mxCell id="BYJi9OCZLbPdZtuotPyX-10" value="VPC Link" style="sketch=0;outlineConnect=0;fontColor=#232F3E;gradientColor=none;strokeColor=#ffffff;fillColor=#232F3E;dashed=0;verticalLabelPosition=middle;verticalAlign=bottom;align=center;html=1;whiteSpace=wrap;fontSize=10;fontStyle=1;spacing=3;shape=mxgraph.aws4.productIcon;prIcon=mxgraph.aws4.privatelink;" parent="BYJi9OCZLbPdZtuotPyX-47" vertex="1">
          <mxGeometry x="130" y="230.5" width="50" height="80" as="geometry" />
        </mxCell>
        <mxCell id="BYJi9OCZLbPdZtuotPyX-13" value="Amazon API Gateway" style="sketch=0;outlineConnect=0;fontColor=#232F3E;gradientColor=none;strokeColor=#ffffff;fillColor=#232F3E;dashed=0;verticalLabelPosition=middle;verticalAlign=bottom;align=center;html=1;whiteSpace=wrap;fontSize=10;fontStyle=1;spacing=3;shape=mxgraph.aws4.productIcon;prIcon=mxgraph.aws4.api_gateway;" parent="BYJi9OCZLbPdZtuotPyX-47" vertex="1">
          <mxGeometry x="37" y="221" width="60" height="100" as="geometry" />
        </mxCell>
        <mxCell id="BYJi9OCZLbPdZtuotPyX-45" style="edgeStyle=orthogonalEdgeStyle;rounded=0;orthogonalLoop=1;jettySize=auto;html=1;" parent="BYJi9OCZLbPdZtuotPyX-47" source="BYJi9OCZLbPdZtuotPyX-13" target="BYJi9OCZLbPdZtuotPyX-10" edge="1">
          <mxGeometry relative="1" as="geometry" />
        </mxCell>
        <mxCell id="BYJi9OCZLbPdZtuotPyX-59" value="Gateway Endpoint" style="sketch=0;outlineConnect=0;fontColor=#232F3E;gradientColor=none;fillColor=#8C4FFF;strokeColor=none;dashed=0;verticalLabelPosition=bottom;verticalAlign=top;align=center;html=1;fontSize=12;fontStyle=0;aspect=fixed;pointerEvents=1;shape=mxgraph.aws4.endpoints;" parent="BYJi9OCZLbPdZtuotPyX-47" vertex="1">
          <mxGeometry x="528.5" y="490" width="49" height="49" as="geometry" />
        </mxCell>
        <mxCell id="BYJi9OCZLbPdZtuotPyX-9" value="Endpoint Service&amp;nbsp;" style="sketch=0;outlineConnect=0;fontColor=#232F3E;gradientColor=none;fillColor=#8C4FFF;strokeColor=none;dashed=0;verticalLabelPosition=bottom;verticalAlign=top;align=center;html=1;fontSize=12;fontStyle=0;aspect=fixed;pointerEvents=1;shape=mxgraph.aws4.endpoints;" parent="BYJi9OCZLbPdZtuotPyX-47" vertex="1">
          <mxGeometry x="200" y="243.25" width="54.5" height="54.5" as="geometry" />
        </mxCell>
        <mxCell id="BYJi9OCZLbPdZtuotPyX-18" value="Availability Zone 1b" style="fillColor=none;strokeColor=#147EBA;dashed=1;verticalAlign=top;fontStyle=0;fontColor=#147EBA;whiteSpace=wrap;html=1;" parent="1" vertex="1">
          <mxGeometry x="360" y="-79.5" width="750" height="190" as="geometry" />
        </mxCell>
        <mxCell id="BYJi9OCZLbPdZtuotPyX-12" value="Availability Zone 1a" style="fillColor=none;strokeColor=#147EBA;dashed=1;verticalAlign=top;fontStyle=0;fontColor=#147EBA;whiteSpace=wrap;html=1;" parent="1" vertex="1">
          <mxGeometry x="360" y="-310" width="750" height="190" as="geometry" />
        </mxCell>
        <mxCell id="BYJi9OCZLbPdZtuotPyX-11" value="Applicaiton Private subnet" style="points=[[0,0],[0.25,0],[0.5,0],[0.75,0],[1,0],[1,0.25],[1,0.5],[1,0.75],[1,1],[0.75,1],[0.5,1],[0.25,1],[0,1],[0,0.75],[0,0.5],[0,0.25]];outlineConnect=0;gradientColor=none;html=1;whiteSpace=wrap;fontSize=12;fontStyle=0;container=1;pointerEvents=0;collapsible=0;recursiveResize=0;shape=mxgraph.aws4.group;grIcon=mxgraph.aws4.group_security_group;grStroke=0;strokeColor=#00A4A6;fillColor=#E6F6F7;verticalAlign=top;align=left;spacingLeft=30;fontColor=#147EBA;dashed=0;" parent="1" vertex="1">
          <mxGeometry x="480" y="-280" width="240" height="130" as="geometry" />
        </mxCell>
        <mxCell id="BYJi9OCZLbPdZtuotPyX-69" value="EKS Cluster" style="sketch=0;points=[[0,0,0],[0.25,0,0],[0.5,0,0],[0.75,0,0],[1,0,0],[0,1,0],[0.25,1,0],[0.5,1,0],[0.75,1,0],[1,1,0],[0,0.25,0],[0,0.5,0],[0,0.75,0],[1,0.25,0],[1,0.5,0],[1,0.75,0]];outlineConnect=0;fontColor=#232F3E;fillColor=#ED7100;strokeColor=#ffffff;dashed=0;verticalLabelPosition=bottom;verticalAlign=top;align=center;html=1;fontSize=12;fontStyle=0;aspect=fixed;shape=mxgraph.aws4.resourceIcon;resIcon=mxgraph.aws4.eks_cloud;" parent="BYJi9OCZLbPdZtuotPyX-11" vertex="1">
          <mxGeometry x="81" y="26" width="78" height="78" as="geometry" />
        </mxCell>
        <mxCell id="BYJi9OCZLbPdZtuotPyX-7" value="NLB" style="sketch=0;outlineConnect=0;fontColor=#232F3E;gradientColor=none;strokeColor=#ffffff;fillColor=#232F3E;dashed=0;verticalLabelPosition=middle;verticalAlign=bottom;align=center;html=1;whiteSpace=wrap;fontSize=10;fontStyle=1;spacing=3;shape=mxgraph.aws4.productIcon;prIcon=mxgraph.aws4.network_load_balancer;" parent="1" vertex="1">
          <mxGeometry x="369" y="-129.5" width="60" height="80" as="geometry" />
        </mxCell>
        <mxCell id="BYJi9OCZLbPdZtuotPyX-46" style="edgeStyle=orthogonalEdgeStyle;rounded=0;orthogonalLoop=1;jettySize=auto;html=1;" parent="1" source="BYJi9OCZLbPdZtuotPyX-10" target="BYJi9OCZLbPdZtuotPyX-7" edge="1">
          <mxGeometry relative="1" as="geometry" />
        </mxCell>
        <mxCell id="BYJi9OCZLbPdZtuotPyX-19" value="Application Private subnet" style="points=[[0,0],[0.25,0],[0.5,0],[0.75,0],[1,0],[1,0.25],[1,0.5],[1,0.75],[1,1],[0.75,1],[0.5,1],[0.25,1],[0,1],[0,0.75],[0,0.5],[0,0.25]];outlineConnect=0;gradientColor=none;html=1;whiteSpace=wrap;fontSize=12;fontStyle=0;container=1;pointerEvents=0;collapsible=0;recursiveResize=0;shape=mxgraph.aws4.group;grIcon=mxgraph.aws4.group_security_group;grStroke=0;strokeColor=#00A4A6;fillColor=#E6F6F7;verticalAlign=top;align=left;spacingLeft=30;fontColor=#147EBA;dashed=0;" parent="1" vertex="1">
          <mxGeometry x="480" y="-50" width="240" height="140" as="geometry" />
        </mxCell>
        <mxCell id="BYJi9OCZLbPdZtuotPyX-70" value="EKS Cluster" style="sketch=0;points=[[0,0,0],[0.25,0,0],[0.5,0,0],[0.75,0,0],[1,0,0],[0,1,0],[0.25,1,0],[0.5,1,0],[0.75,1,0],[1,1,0],[0,0.25,0],[0,0.5,0],[0,0.75,0],[1,0.25,0],[1,0.5,0],[1,0.75,0]];outlineConnect=0;fontColor=#232F3E;fillColor=#ED7100;strokeColor=#ffffff;dashed=0;verticalLabelPosition=bottom;verticalAlign=top;align=center;html=1;fontSize=12;fontStyle=0;aspect=fixed;shape=mxgraph.aws4.resourceIcon;resIcon=mxgraph.aws4.eks_cloud;" parent="BYJi9OCZLbPdZtuotPyX-19" vertex="1">
          <mxGeometry x="84" y="30.5" width="78" height="78" as="geometry" />
        </mxCell>
        <mxCell id="BYJi9OCZLbPdZtuotPyX-20" value="DB Private subnet&amp;nbsp;" style="points=[[0,0],[0.25,0],[0.5,0],[0.75,0],[1,0],[1,0.25],[1,0.5],[1,0.75],[1,1],[0.75,1],[0.5,1],[0.25,1],[0,1],[0,0.75],[0,0.5],[0,0.25]];outlineConnect=0;gradientColor=none;html=1;whiteSpace=wrap;fontSize=12;fontStyle=0;container=1;pointerEvents=0;collapsible=0;recursiveResize=0;shape=mxgraph.aws4.group;grIcon=mxgraph.aws4.group_security_group;grStroke=0;strokeColor=#00A4A6;fillColor=#E6F6F7;verticalAlign=top;align=left;spacingLeft=30;fontColor=#147EBA;dashed=0;" parent="1" vertex="1">
          <mxGeometry x="767" y="-280" width="133" height="145" as="geometry" />
        </mxCell>
        <mxCell id="BYJi9OCZLbPdZtuotPyX-22" value="RDS DB Primary" style="outlineConnect=0;dashed=0;verticalLabelPosition=bottom;verticalAlign=top;align=center;html=1;shape=mxgraph.aws3.rds;fillColor=#2E73B8;gradientColor=none;" parent="BYJi9OCZLbPdZtuotPyX-20" vertex="1">
          <mxGeometry x="53" y="26" width="27" height="30" as="geometry" />
        </mxCell>
        <mxCell id="BYJi9OCZLbPdZtuotPyX-81" value="Redis Primary" style="sketch=0;outlineConnect=0;fontColor=#232F3E;gradientColor=none;fillColor=#C925D1;strokeColor=none;dashed=0;verticalLabelPosition=bottom;verticalAlign=top;align=center;html=1;fontSize=12;fontStyle=0;aspect=fixed;pointerEvents=1;shape=mxgraph.aws4.elasticache_for_redis;" parent="BYJi9OCZLbPdZtuotPyX-20" vertex="1">
          <mxGeometry x="46.71" y="84" width="39.57" height="35" as="geometry" />
        </mxCell>
        <mxCell id="BYJi9OCZLbPdZtuotPyX-21" value="DB Private subnet" style="points=[[0,0],[0.25,0],[0.5,0],[0.75,0],[1,0],[1,0.25],[1,0.5],[1,0.75],[1,1],[0.75,1],[0.5,1],[0.25,1],[0,1],[0,0.75],[0,0.5],[0,0.25]];outlineConnect=0;gradientColor=none;html=1;whiteSpace=wrap;fontSize=12;fontStyle=0;container=1;pointerEvents=0;collapsible=0;recursiveResize=0;shape=mxgraph.aws4.group;grIcon=mxgraph.aws4.group_security_group;grStroke=0;strokeColor=#00A4A6;fillColor=#E6F6F7;verticalAlign=top;align=left;spacingLeft=30;fontColor=#147EBA;dashed=0;" parent="1" vertex="1">
          <mxGeometry x="767" y="-52.5" width="133" height="149.5" as="geometry" />
        </mxCell>
        <mxCell id="BYJi9OCZLbPdZtuotPyX-23" value="RDS DB Standby" style="outlineConnect=0;dashed=0;verticalLabelPosition=bottom;verticalAlign=top;align=center;html=1;shape=mxgraph.aws3.rds;fillColor=#2E73B8;gradientColor=none;" parent="BYJi9OCZLbPdZtuotPyX-21" vertex="1">
          <mxGeometry x="56" y="27.5" width="30" height="32.5" as="geometry" />
        </mxCell>
        <mxCell id="BYJi9OCZLbPdZtuotPyX-41" style="rounded=0;orthogonalLoop=1;jettySize=auto;html=1;exitX=0.995;exitY=0.63;exitDx=0;exitDy=0;exitPerimeter=0;entryX=0;entryY=0.5;entryDx=0;entryDy=0;" parent="1" edge="1">
          <mxGeometry relative="1" as="geometry">
            <mxPoint x="543.75" y="-189.76" as="sourcePoint" />
          </mxGeometry>
        </mxCell>
        <mxCell id="BYJi9OCZLbPdZtuotPyX-40" style="rounded=0;orthogonalLoop=1;jettySize=auto;html=1;exitX=1;exitY=0.5;exitDx=0;exitDy=0;" parent="1" edge="1">
          <mxGeometry relative="1" as="geometry">
            <mxPoint x="645" y="-190" as="sourcePoint" />
          </mxGeometry>
        </mxCell>
        <mxCell id="BYJi9OCZLbPdZtuotPyX-38" style="rounded=0;orthogonalLoop=1;jettySize=auto;html=1;exitX=0.995;exitY=0.63;exitDx=0;exitDy=0;exitPerimeter=0;entryX=0;entryY=0.5;entryDx=0;entryDy=0;" parent="1" edge="1">
          <mxGeometry relative="1" as="geometry">
            <mxPoint x="544.75" y="0.23999999999978172" as="sourcePoint" />
          </mxGeometry>
        </mxCell>
        <mxCell id="BYJi9OCZLbPdZtuotPyX-36" style="edgeStyle=orthogonalEdgeStyle;rounded=0;orthogonalLoop=1;jettySize=auto;html=1;entryX=0;entryY=0.75;entryDx=0;entryDy=0;entryPerimeter=0;" parent="1" source="BYJi9OCZLbPdZtuotPyX-7" target="BYJi9OCZLbPdZtuotPyX-69" edge="1">
          <mxGeometry relative="1" as="geometry">
            <mxPoint x="494.25" y="-189.76" as="targetPoint" />
            <Array as="points">
              <mxPoint x="462" y="-110" />
              <mxPoint x="462" y="-195" />
              <mxPoint x="520" y="-195" />
            </Array>
          </mxGeometry>
        </mxCell>
        <mxCell id="BYJi9OCZLbPdZtuotPyX-37" style="edgeStyle=orthogonalEdgeStyle;rounded=0;orthogonalLoop=1;jettySize=auto;html=1;entryX=0;entryY=0.5;entryDx=0;entryDy=0;entryPerimeter=0;" parent="1" source="BYJi9OCZLbPdZtuotPyX-7" target="BYJi9OCZLbPdZtuotPyX-70" edge="1">
          <mxGeometry relative="1" as="geometry">
            <mxPoint x="495.25000000000045" y="0.23999999999978172" as="targetPoint" />
            <Array as="points">
              <mxPoint x="460" y="-100" />
              <mxPoint x="460" y="20" />
            </Array>
          </mxGeometry>
        </mxCell>
        <mxCell id="BYJi9OCZLbPdZtuotPyX-39" style="edgeStyle=orthogonalEdgeStyle;rounded=0;orthogonalLoop=1;jettySize=auto;html=1;entryX=0.005;entryY=0.63;entryDx=0;entryDy=0;entryPerimeter=0;" parent="1" edge="1">
          <mxGeometry relative="1" as="geometry">
            <mxPoint x="647.9999999999995" y="2.2737367544323206e-13" as="sourcePoint" />
          </mxGeometry>
        </mxCell>
        <mxCell id="BYJi9OCZLbPdZtuotPyX-50" value="Cloudfront" style="outlineConnect=0;dashed=0;verticalLabelPosition=bottom;verticalAlign=top;align=center;html=1;shape=mxgraph.aws3.cloudfront;fillColor=#F58536;gradientColor=none;" parent="1" vertex="1">
          <mxGeometry x="-98" y="-16" width="60" height="63" as="geometry" />
        </mxCell>
        <mxCell id="BYJi9OCZLbPdZtuotPyX-56" style="edgeStyle=orthogonalEdgeStyle;rounded=0;orthogonalLoop=1;jettySize=auto;html=1;entryX=0;entryY=0.5;entryDx=0;entryDy=0;entryPerimeter=0;" parent="1" source="BYJi9OCZLbPdZtuotPyX-50" target="BYJi9OCZLbPdZtuotPyX-55" edge="1">
          <mxGeometry relative="1" as="geometry" />
        </mxCell>
        <mxCell id="uSjDolNNVmsRICeSGvWV-1" style="edgeStyle=orthogonalEdgeStyle;rounded=0;orthogonalLoop=1;jettySize=auto;html=1;exitX=1;exitY=0.5;exitDx=0;exitDy=0;exitPerimeter=0;" edge="1" parent="1" source="BYJi9OCZLbPdZtuotPyX-51" target="BYJi9OCZLbPdZtuotPyX-13">
          <mxGeometry relative="1" as="geometry">
            <Array as="points">
              <mxPoint x="-20" y="-80" />
              <mxPoint x="-20" y="-180" />
              <mxPoint x="117" y="-180" />
            </Array>
          </mxGeometry>
        </mxCell>
        <mxCell id="BYJi9OCZLbPdZtuotPyX-51" value="Waf" style="sketch=0;points=[[0,0,0],[0.25,0,0],[0.5,0,0],[0.75,0,0],[1,0,0],[0,1,0],[0.25,1,0],[0.5,1,0],[0.75,1,0],[1,1,0],[0,0.25,0],[0,0.5,0],[0,0.75,0],[1,0.25,0],[1,0.5,0],[1,0.75,0]];outlineConnect=0;fontColor=#232F3E;fillColor=#DD344C;strokeColor=#ffffff;dashed=0;verticalLabelPosition=bottom;verticalAlign=top;align=center;html=1;fontSize=12;fontStyle=0;aspect=fixed;shape=mxgraph.aws4.resourceIcon;resIcon=mxgraph.aws4.waf;" parent="1" vertex="1">
          <mxGeometry x="-94.5" y="-107" width="54" height="54" as="geometry" />
        </mxCell>
        <mxCell id="BYJi9OCZLbPdZtuotPyX-57" style="edgeStyle=orthogonalEdgeStyle;rounded=0;orthogonalLoop=1;jettySize=auto;html=1;exitX=0.5;exitY=1;exitDx=0;exitDy=0;exitPerimeter=0;entryX=0.5;entryY=0;entryDx=0;entryDy=0;entryPerimeter=0;" parent="1" source="BYJi9OCZLbPdZtuotPyX-54" target="BYJi9OCZLbPdZtuotPyX-51" edge="1">
          <mxGeometry relative="1" as="geometry" />
        </mxCell>
        <mxCell id="BYJi9OCZLbPdZtuotPyX-58" style="edgeStyle=orthogonalEdgeStyle;rounded=0;orthogonalLoop=1;jettySize=auto;html=1;exitX=0.5;exitY=1;exitDx=0;exitDy=0;exitPerimeter=0;entryX=0.5;entryY=0;entryDx=0;entryDy=0;entryPerimeter=0;" parent="1" source="BYJi9OCZLbPdZtuotPyX-51" target="BYJi9OCZLbPdZtuotPyX-50" edge="1">
          <mxGeometry relative="1" as="geometry" />
        </mxCell>
        <mxCell id="BYJi9OCZLbPdZtuotPyX-64" style="edgeStyle=orthogonalEdgeStyle;rounded=0;orthogonalLoop=1;jettySize=auto;html=1;" parent="1" source="BYJi9OCZLbPdZtuotPyX-63" target="BYJi9OCZLbPdZtuotPyX-54" edge="1">
          <mxGeometry relative="1" as="geometry" />
        </mxCell>
        <mxCell id="BYJi9OCZLbPdZtuotPyX-63" value="" style="shape=actor;whiteSpace=wrap;html=1;" parent="1" vertex="1">
          <mxGeometry x="-230" y="-200" width="40" height="60" as="geometry" />
        </mxCell>
        <mxCell id="BYJi9OCZLbPdZtuotPyX-65" value="Client" style="text;html=1;align=center;verticalAlign=middle;whiteSpace=wrap;rounded=0;" parent="1" vertex="1">
          <mxGeometry x="-240" y="-143" width="60" height="30" as="geometry" />
        </mxCell>
        <mxCell id="BYJi9OCZLbPdZtuotPyX-68" style="edgeStyle=orthogonalEdgeStyle;rounded=0;orthogonalLoop=1;jettySize=auto;html=1;" parent="1" source="BYJi9OCZLbPdZtuotPyX-66" target="BYJi9OCZLbPdZtuotPyX-13" edge="1">
          <mxGeometry relative="1" as="geometry">
            <Array as="points">
              <mxPoint x="10" y="119" />
              <mxPoint x="10" y="-100" />
            </Array>
          </mxGeometry>
        </mxCell>
        <mxCell id="BYJi9OCZLbPdZtuotPyX-66" value="Certificate Manager" style="sketch=0;points=[[0,0,0],[0.25,0,0],[0.5,0,0],[0.75,0,0],[1,0,0],[0,1,0],[0.25,1,0],[0.5,1,0],[0.75,1,0],[1,1,0],[0,0.25,0],[0,0.5,0],[0,0.75,0],[1,0.25,0],[1,0.5,0],[1,0.75,0]];outlineConnect=0;fontColor=#232F3E;fillColor=#DD344C;strokeColor=#ffffff;dashed=0;verticalLabelPosition=bottom;verticalAlign=top;align=center;html=1;fontSize=12;fontStyle=0;aspect=fixed;shape=mxgraph.aws4.resourceIcon;resIcon=mxgraph.aws4.certificate_manager_3;" parent="1" vertex="1">
          <mxGeometry x="-96.5" y="90" width="58" height="58" as="geometry" />
        </mxCell>
        <mxCell id="BYJi9OCZLbPdZtuotPyX-67" style="edgeStyle=orthogonalEdgeStyle;rounded=0;orthogonalLoop=1;jettySize=auto;html=1;exitX=0.5;exitY=0;exitDx=0;exitDy=0;exitPerimeter=0;entryX=0.5;entryY=1;entryDx=0;entryDy=0;entryPerimeter=0;" parent="1" source="BYJi9OCZLbPdZtuotPyX-66" target="BYJi9OCZLbPdZtuotPyX-50" edge="1">
          <mxGeometry relative="1" as="geometry" />
        </mxCell>
        <mxCell id="BYJi9OCZLbPdZtuotPyX-71" style="edgeStyle=orthogonalEdgeStyle;rounded=0;orthogonalLoop=1;jettySize=auto;html=1;exitX=1;exitY=0.5;exitDx=0;exitDy=0;exitPerimeter=0;" parent="1" source="BYJi9OCZLbPdZtuotPyX-70" target="BYJi9OCZLbPdZtuotPyX-23" edge="1">
          <mxGeometry relative="1" as="geometry" />
        </mxCell>
        <mxCell id="BYJi9OCZLbPdZtuotPyX-72" style="edgeStyle=orthogonalEdgeStyle;rounded=0;orthogonalLoop=1;jettySize=auto;html=1;exitX=1;exitY=0.5;exitDx=0;exitDy=0;exitPerimeter=0;" parent="1" source="BYJi9OCZLbPdZtuotPyX-69" target="BYJi9OCZLbPdZtuotPyX-22" edge="1">
          <mxGeometry relative="1" as="geometry" />
        </mxCell>
        <mxCell id="BYJi9OCZLbPdZtuotPyX-77" style="edgeStyle=orthogonalEdgeStyle;rounded=0;orthogonalLoop=1;jettySize=auto;html=1;" parent="1" source="BYJi9OCZLbPdZtuotPyX-69" target="BYJi9OCZLbPdZtuotPyX-55" edge="1">
          <mxGeometry relative="1" as="geometry">
            <Array as="points">
              <mxPoint x="600" y="-100" />
              <mxPoint x="1120" y="-100" />
              <mxPoint x="1120" y="150" />
              <mxPoint x="122" y="150" />
            </Array>
          </mxGeometry>
        </mxCell>
        <mxCell id="BYJi9OCZLbPdZtuotPyX-82" value="Redis Replica" style="sketch=0;outlineConnect=0;fontColor=#232F3E;gradientColor=none;fillColor=#C925D1;strokeColor=none;dashed=0;verticalLabelPosition=bottom;verticalAlign=top;align=center;html=1;fontSize=12;fontStyle=0;aspect=fixed;pointerEvents=1;shape=mxgraph.aws4.elasticache_for_redis;" parent="1" vertex="1">
          <mxGeometry x="820" y="37" width="39.57" height="35" as="geometry" />
        </mxCell>
        <mxCell id="BYJi9OCZLbPdZtuotPyX-83" style="edgeStyle=orthogonalEdgeStyle;rounded=0;orthogonalLoop=1;jettySize=auto;html=1;exitX=1;exitY=0.75;exitDx=0;exitDy=0;exitPerimeter=0;" parent="1" source="BYJi9OCZLbPdZtuotPyX-70" target="BYJi9OCZLbPdZtuotPyX-82" edge="1">
          <mxGeometry relative="1" as="geometry" />
        </mxCell>
        <mxCell id="BYJi9OCZLbPdZtuotPyX-84" style="edgeStyle=orthogonalEdgeStyle;rounded=0;orthogonalLoop=1;jettySize=auto;html=1;exitX=1;exitY=0.75;exitDx=0;exitDy=0;exitPerimeter=0;" parent="1" source="BYJi9OCZLbPdZtuotPyX-69" target="BYJi9OCZLbPdZtuotPyX-81" edge="1">
          <mxGeometry relative="1" as="geometry" />
        </mxCell>
        <mxCell id="BYJi9OCZLbPdZtuotPyX-85" value="" style="edgeStyle=orthogonalEdgeStyle;rounded=0;orthogonalLoop=1;jettySize=auto;html=1;exitX=0.5;exitY=1;exitDx=0;exitDy=0;exitPerimeter=0;endArrow=none;startFill=0;" parent="1" source="BYJi9OCZLbPdZtuotPyX-70" target="BYJi9OCZLbPdZtuotPyX-59" edge="1">
          <mxGeometry relative="1" as="geometry">
            <mxPoint x="1088.8333333333335" y="119.99999999999977" as="targetPoint" />
            <mxPoint x="1089" y="9" as="sourcePoint" />
          </mxGeometry>
        </mxCell>
        <mxCell id="BYJi9OCZLbPdZtuotPyX-95" value="Lambda Private subnet" style="points=[[0,0],[0.25,0],[0.5,0],[0.75,0],[1,0],[1,0.25],[1,0.5],[1,0.75],[1,1],[0.75,1],[0.5,1],[0.25,1],[0,1],[0,0.75],[0,0.5],[0,0.25]];outlineConnect=0;gradientColor=none;html=1;whiteSpace=wrap;fontSize=12;fontStyle=0;container=1;pointerEvents=0;collapsible=0;recursiveResize=0;shape=mxgraph.aws4.group;grIcon=mxgraph.aws4.group_security_group;grStroke=0;strokeColor=#00A4A6;fillColor=#E6F6F7;verticalAlign=top;align=left;spacingLeft=30;fontColor=#147EBA;dashed=0;" parent="1" vertex="1">
          <mxGeometry x="930" y="-280" width="170" height="145" as="geometry" />
        </mxCell>
        <mxCell id="BYJi9OCZLbPdZtuotPyX-98" value="notification" style="sketch=0;points=[[0,0,0],[0.25,0,0],[0.5,0,0],[0.75,0,0],[1,0,0],[0,1,0],[0.25,1,0],[0.5,1,0],[0.75,1,0],[1,1,0],[0,0.25,0],[0,0.5,0],[0,0.75,0],[1,0.25,0],[1,0.5,0],[1,0.75,0]];outlineConnect=0;fontColor=#232F3E;fillColor=#ED7100;strokeColor=#ffffff;dashed=0;verticalLabelPosition=bottom;verticalAlign=top;align=center;html=1;fontSize=12;fontStyle=0;aspect=fixed;shape=mxgraph.aws4.resourceIcon;resIcon=mxgraph.aws4.lambda;" parent="BYJi9OCZLbPdZtuotPyX-95" vertex="1">
          <mxGeometry x="46" y="31" width="78" height="78" as="geometry" />
        </mxCell>
        <mxCell id="BYJi9OCZLbPdZtuotPyX-99" style="edgeStyle=orthogonalEdgeStyle;rounded=0;orthogonalLoop=1;jettySize=auto;html=1;exitX=0.5;exitY=1;exitDx=0;exitDy=0;exitPerimeter=0;" parent="1" source="BYJi9OCZLbPdZtuotPyX-91" target="BYJi9OCZLbPdZtuotPyX-95" edge="1">
          <mxGeometry relative="1" as="geometry" />
        </mxCell>
        <mxCell id="BYJi9OCZLbPdZtuotPyX-93" style="edgeStyle=orthogonalEdgeStyle;rounded=0;orthogonalLoop=1;jettySize=auto;html=1;exitX=1;exitY=0.5;exitDx=0;exitDy=0;exitPerimeter=0;" parent="1" source="BYJi9OCZLbPdZtuotPyX-87" target="BYJi9OCZLbPdZtuotPyX-89" edge="1">
          <mxGeometry relative="1" as="geometry" />
        </mxCell>
        <mxCell id="BYJi9OCZLbPdZtuotPyX-87" value="SNS" style="outlineConnect=0;dashed=0;verticalLabelPosition=bottom;verticalAlign=top;align=center;html=1;shape=mxgraph.aws3.sns;fillColor=#D9A741;gradientColor=none;" parent="1" vertex="1">
          <mxGeometry x="739.61" y="-439" width="60" height="51" as="geometry" />
        </mxCell>
        <mxCell id="BYJi9OCZLbPdZtuotPyX-89" value="SQS" style="outlineConnect=0;dashed=0;verticalLabelPosition=bottom;verticalAlign=top;align=center;html=1;shape=mxgraph.aws3.sqs;fillColor=#D9A741;gradientColor=none;" parent="1" vertex="1">
          <mxGeometry x="859.18" y="-440" width="60" height="53" as="geometry" />
        </mxCell>
        <mxCell id="BYJi9OCZLbPdZtuotPyX-91" value="Notification Queue" style="outlineConnect=0;dashed=0;verticalLabelPosition=bottom;verticalAlign=top;align=center;html=1;shape=mxgraph.aws3.queue;fillColor=#D9A741;gradientColor=none;" parent="1" vertex="1">
          <mxGeometry x="980.39" y="-432" width="70" height="36" as="geometry" />
        </mxCell>
        <mxCell id="BYJi9OCZLbPdZtuotPyX-92" style="edgeStyle=orthogonalEdgeStyle;rounded=0;orthogonalLoop=1;jettySize=auto;html=1;" parent="1" source="BYJi9OCZLbPdZtuotPyX-88" target="BYJi9OCZLbPdZtuotPyX-87" edge="1">
          <mxGeometry relative="1" as="geometry" />
        </mxCell>
        <mxCell id="BYJi9OCZLbPdZtuotPyX-88" value="SNS topic" style="outlineConnect=0;dashed=0;verticalLabelPosition=bottom;verticalAlign=top;align=center;html=1;shape=mxgraph.aws3.topic_2;fillColor=#D9A741;gradientColor=none;" parent="1" vertex="1">
          <mxGeometry x="614.61" y="-432.75" width="60" height="38.5" as="geometry" />
        </mxCell>
        <mxCell id="BYJi9OCZLbPdZtuotPyX-100" style="edgeStyle=orthogonalEdgeStyle;rounded=0;orthogonalLoop=1;jettySize=auto;html=1;exitX=1;exitY=0.5;exitDx=0;exitDy=0;exitPerimeter=0;entryX=0;entryY=0.5;entryDx=0;entryDy=0;entryPerimeter=0;" parent="1" source="BYJi9OCZLbPdZtuotPyX-89" target="BYJi9OCZLbPdZtuotPyX-91" edge="1">
          <mxGeometry relative="1" as="geometry" />
        </mxCell>
        <mxCell id="BYJi9OCZLbPdZtuotPyX-101" style="edgeStyle=orthogonalEdgeStyle;rounded=0;orthogonalLoop=1;jettySize=auto;html=1;exitX=0.5;exitY=0;exitDx=0;exitDy=0;exitPerimeter=0;entryX=0;entryY=0.5;entryDx=0;entryDy=0;entryPerimeter=0;" parent="1" source="BYJi9OCZLbPdZtuotPyX-69" target="BYJi9OCZLbPdZtuotPyX-88" edge="1">
          <mxGeometry relative="1" as="geometry">
            <Array as="points">
              <mxPoint x="600" y="-413" />
              <mxPoint x="615" y="-413" />
            </Array>
          </mxGeometry>
        </mxCell>
        <mxCell id="BYJi9OCZLbPdZtuotPyX-104" value="" style="rounded=0;whiteSpace=wrap;html=1;" parent="1" vertex="1">
          <mxGeometry x="1230" y="-310" width="120" height="420" as="geometry" />
        </mxCell>
        <mxCell id="BYJi9OCZLbPdZtuotPyX-105" value="Cloud trail" style="outlineConnect=0;dashed=0;verticalLabelPosition=bottom;verticalAlign=top;align=center;html=1;shape=mxgraph.aws3.cloudtrail;fillColor=#759C3E;gradientColor=none;" parent="1" vertex="1">
          <mxGeometry x="1260" y="-300" width="58" height="52" as="geometry" />
        </mxCell>
        <mxCell id="BYJi9OCZLbPdZtuotPyX-106" value="Cloud formation" style="sketch=0;points=[[0,0,0],[0.25,0,0],[0.5,0,0],[0.75,0,0],[1,0,0],[0,1,0],[0.25,1,0],[0.5,1,0],[0.75,1,0],[1,1,0],[0,0.25,0],[0,0.5,0],[0,0.75,0],[1,0.25,0],[1,0.5,0],[1,0.75,0]];points=[[0,0,0],[0.25,0,0],[0.5,0,0],[0.75,0,0],[1,0,0],[0,1,0],[0.25,1,0],[0.5,1,0],[0.75,1,0],[1,1,0],[0,0.25,0],[0,0.5,0],[0,0.75,0],[1,0.25,0],[1,0.5,0],[1,0.75,0]];outlineConnect=0;fontColor=#232F3E;fillColor=#E7157B;strokeColor=#ffffff;dashed=0;verticalLabelPosition=bottom;verticalAlign=top;align=center;html=1;fontSize=12;fontStyle=0;aspect=fixed;shape=mxgraph.aws4.resourceIcon;resIcon=mxgraph.aws4.cloudformation;" parent="1" vertex="1">
          <mxGeometry x="1260" y="-210" width="60" height="60" as="geometry" />
        </mxCell>
        <mxCell id="BYJi9OCZLbPdZtuotPyX-107" value="Cloudwatch" style="sketch=0;points=[[0,0,0],[0.25,0,0],[0.5,0,0],[0.75,0,0],[1,0,0],[0,1,0],[0.25,1,0],[0.5,1,0],[0.75,1,0],[1,1,0],[0,0.25,0],[0,0.5,0],[0,0.75,0],[1,0.25,0],[1,0.5,0],[1,0.75,0]];points=[[0,0,0],[0.25,0,0],[0.5,0,0],[0.75,0,0],[1,0,0],[0,1,0],[0.25,1,0],[0.5,1,0],[0.75,1,0],[1,1,0],[0,0.25,0],[0,0.5,0],[0,0.75,0],[1,0.25,0],[1,0.5,0],[1,0.75,0]];outlineConnect=0;fontColor=#232F3E;fillColor=#E7157B;strokeColor=#ffffff;dashed=0;verticalLabelPosition=bottom;verticalAlign=top;align=center;html=1;fontSize=12;fontStyle=0;aspect=fixed;shape=mxgraph.aws4.resourceIcon;resIcon=mxgraph.aws4.cloudwatch_2;" parent="1" vertex="1">
          <mxGeometry x="1258.75" y="-115.5" width="62.5" height="62.5" as="geometry" />
        </mxCell>
        <mxCell id="BYJi9OCZLbPdZtuotPyX-108" value="Secret Manager" style="sketch=0;points=[[0,0,0],[0.25,0,0],[0.5,0,0],[0.75,0,0],[1,0,0],[0,1,0],[0.25,1,0],[0.5,1,0],[0.75,1,0],[1,1,0],[0,0.25,0],[0,0.5,0],[0,0.75,0],[1,0.25,0],[1,0.5,0],[1,0.75,0]];outlineConnect=0;fontColor=#232F3E;fillColor=#DD344C;strokeColor=#ffffff;dashed=0;verticalLabelPosition=bottom;verticalAlign=top;align=center;html=1;fontSize=12;fontStyle=0;aspect=fixed;shape=mxgraph.aws4.resourceIcon;resIcon=mxgraph.aws4.secrets_manager;" parent="1" vertex="1">
          <mxGeometry x="1260.25" y="-14" width="61" height="61" as="geometry" />
        </mxCell>
        <mxCell id="BYJi9OCZLbPdZtuotPyX-111" value="&lt;b&gt;Optional Services&lt;/b&gt;" style="text;html=1;align=center;verticalAlign=middle;whiteSpace=wrap;rounded=0;" parent="1" vertex="1">
          <mxGeometry x="1235" y="80" width="110" height="30.5" as="geometry" />
        </mxCell>
        <mxCell id="BYJi9OCZLbPdZtuotPyX-114" value="Lambda Private subnet" style="points=[[0,0],[0.25,0],[0.5,0],[0.75,0],[1,0],[1,0.25],[1,0.5],[1,0.75],[1,1],[0.75,1],[0.5,1],[0.25,1],[0,1],[0,0.75],[0,0.5],[0,0.25]];outlineConnect=0;gradientColor=none;html=1;whiteSpace=wrap;fontSize=12;fontStyle=0;container=1;pointerEvents=0;collapsible=0;recursiveResize=0;shape=mxgraph.aws4.group;grIcon=mxgraph.aws4.group_security_group;grStroke=0;strokeColor=#00A4A6;fillColor=#E6F6F7;verticalAlign=top;align=left;spacingLeft=30;fontColor=#147EBA;dashed=0;" parent="1" vertex="1">
          <mxGeometry x="930" y="-48" width="170.39" height="145" as="geometry" />
        </mxCell>
        <mxCell id="BYJi9OCZLbPdZtuotPyX-115" value="notification" style="sketch=0;points=[[0,0,0],[0.25,0,0],[0.5,0,0],[0.75,0,0],[1,0,0],[0,1,0],[0.25,1,0],[0.5,1,0],[0.75,1,0],[1,1,0],[0,0.25,0],[0,0.5,0],[0,0.75,0],[1,0.25,0],[1,0.5,0],[1,0.75,0]];outlineConnect=0;fontColor=#232F3E;fillColor=#ED7100;strokeColor=#ffffff;dashed=0;verticalLabelPosition=bottom;verticalAlign=top;align=center;html=1;fontSize=12;fontStyle=0;aspect=fixed;shape=mxgraph.aws4.resourceIcon;resIcon=mxgraph.aws4.lambda;" parent="BYJi9OCZLbPdZtuotPyX-114" vertex="1">
          <mxGeometry x="46" y="31" width="78" height="78" as="geometry" />
        </mxCell>
        <mxCell id="BYJi9OCZLbPdZtuotPyX-116" style="edgeStyle=orthogonalEdgeStyle;rounded=0;orthogonalLoop=1;jettySize=auto;html=1;exitX=1;exitY=0.5;exitDx=0;exitDy=0;exitPerimeter=0;entryX=1;entryY=0.5;entryDx=0;entryDy=0;entryPerimeter=0;" parent="1" source="BYJi9OCZLbPdZtuotPyX-91" target="BYJi9OCZLbPdZtuotPyX-115" edge="1">
          <mxGeometry relative="1" as="geometry" />
        </mxCell>
      </root>
    </mxGraphModel>
  </diagram>
</mxfile>
